<svg width="119" height="120" viewBox="0 0 119 120" fill="none" xmlns="http://www.w3.org/2000/svg">
<rect x="0.5" y="0.5" width="118" height="119" rx="7.5" fill="#f0c419" stroke="#CACCD1"/>
<path fill-rule="evenodd" clip-rule="evenodd" d="M39.0042 36.0374C39.6742 36.1878 40.1476 36.7567 40.1476 37.4114V48.7056C40.1476 49.4853 39.483 50.1174 38.6631 50.1174C37.8432 50.1174 37.1785 49.4853 37.1785 48.7056V41.4159C36.531 41.9599 35.7635 42.4862 34.8734 42.9095C34.14 43.2582 33.2483 42.9755 32.8817 42.2781C32.515 41.5807 32.8122 40.7327 33.5456 40.384C34.7736 39.8001 35.7287 38.9044 36.3905 38.1177C36.7171 37.7294 36.9609 37.3812 37.1204 37.1348C37.194 37.021 37.2658 36.9059 37.3311 36.7876C37.6516 36.2111 38.3249 35.8849 39.0042 36.0374ZM33.1595 56.763C32.5797 56.2117 32.5796 55.3178 33.1593 54.7664L33.163 54.763L33.1672 54.759L33.1774 54.7495L33.2048 54.7244C33.2261 54.7052 33.2537 54.6809 33.2873 54.6523C33.3544 54.5951 33.4462 54.5203 33.5616 54.434C33.7918 54.262 34.1203 54.0409 34.5389 53.8218C35.3748 53.3843 36.598 52.9409 38.1201 52.941L38.145 52.9412C39.2561 52.959 40.4621 53.233 41.4312 53.9155C42.455 54.6364 43.1164 55.7522 43.1164 57.1765C43.1164 58.7231 42.397 59.805 41.4224 60.5773C40.6774 61.1677 39.7237 61.6127 38.9459 61.9755L38.9458 61.9755L38.9439 61.9765C38.819 62.0347 38.6986 62.0909 38.5844 62.1452C37.6602 62.5846 36.9595 62.9718 36.4674 63.4865C36.2701 63.693 36.0933 63.9342 35.9587 64.2355H41.6318C42.4517 64.2355 43.1164 64.8676 43.1164 65.6473C43.1164 66.427 42.4501 67.059 41.6302 67.059H34.2091C33.3893 67.059 32.7246 66.427 32.7246 65.6473C32.7246 63.8989 33.316 62.5857 34.2705 61.5872C35.1702 60.6461 36.3251 60.0627 37.2566 59.6197C37.4057 59.5488 37.5501 59.4809 37.6862 59.4168L37.6862 59.4168L37.6863 59.4168C38.4887 59.0391 39.0723 58.7644 39.5217 58.4082C39.9388 58.0776 40.1473 57.7477 40.1473 57.1765C40.1473 56.6665 39.9486 56.3848 39.6643 56.1846C39.3274 55.9474 38.7822 55.7773 38.1074 55.7645C37.2089 55.7669 36.481 56.0283 35.9705 56.2955C35.7147 56.4293 35.5204 56.5612 35.3964 56.6539C35.3348 56.7 35.2916 56.7356 35.2681 56.7556L35.2486 56.7726C34.6681 57.3142 33.7358 57.311 33.1595 56.763ZM37.9208 75.5294C37.1009 75.5294 36.4363 76.1614 36.4363 76.9411C36.4363 77.7208 37.1009 78.3529 37.9208 78.3529C38.9386 78.3529 39.501 78.6259 39.7843 78.8699C40.0642 79.1109 40.1791 79.4101 40.1672 79.7118C40.1457 80.2581 39.6153 81.1765 37.9208 81.1765C36.696 81.1765 36.0617 80.8893 35.7752 80.7077C35.6251 80.6125 35.5444 80.5299 35.5123 80.4932L35.5001 80.4788C35.1132 79.8301 34.2552 79.5763 33.5456 79.9137C32.8122 80.2624 32.515 81.1104 32.8817 81.8078L32.8838 81.8118L32.886 81.816L32.8907 81.8247L32.9012 81.8438L32.927 81.8883C32.9462 81.9207 32.9699 81.9584 32.9984 82.0005C33.0554 82.0849 33.1318 82.1872 33.2314 82.3008C33.4312 82.5289 33.7217 82.7992 34.1283 83.057C34.9551 83.5812 36.1765 84 37.9208 84C40.9768 84 43.0444 82.0948 43.1342 79.8176C43.1751 78.78 42.7838 77.7403 41.9572 76.9411C42.7838 76.142 43.1751 75.1023 43.1342 74.0647C43.0444 71.7874 40.9768 69.8823 37.9208 69.8823C36.1765 69.8823 34.9551 70.301 34.1283 70.8252C33.7217 71.083 33.4312 71.3534 33.2314 71.5814C33.1318 71.695 33.0554 71.7974 32.9984 71.8817C32.9699 71.9239 32.9462 71.9616 32.927 71.9939L32.9012 72.0384L32.8907 72.0575L32.886 72.0663L32.8838 72.0704L32.8817 72.0744C32.515 72.7718 32.8122 73.6198 33.5456 73.9685C34.2552 74.306 35.1132 74.0521 35.5001 73.4034L35.5123 73.389C35.5444 73.3524 35.6251 73.2697 35.7752 73.1746C36.0617 72.9929 36.696 72.7058 37.9208 72.7058C39.6153 72.7058 40.1457 73.6242 40.1672 74.1705C40.1791 74.4721 40.0642 74.7713 39.7843 75.0124C39.501 75.2564 38.9386 75.5294 37.9208 75.5294ZM52.0621 39C50.4191 39 49.0871 40.3431 49.0871 42C49.0871 43.6569 50.4191 45 52.0621 45H83.2996C84.9427 45 86.2746 43.6569 86.2746 42C86.2746 40.3431 84.9427 39 83.2996 39H52.0621ZM52.0621 57C50.4191 57 49.0871 58.3431 49.0871 60C49.0871 61.6569 50.4191 63 52.0621 63H83.2997C84.9427 63 86.2747 61.6569 86.2747 60C86.2747 58.3431 84.9427 57 83.2997 57H52.0621ZM49.0871 78C49.0871 76.3431 50.4191 75 52.0621 75H83.2998C84.9428 75 86.2748 76.3431 86.2748 78C86.2748 79.6569 84.9428 81 83.2998 81H52.0621C50.4191 81 49.0871 79.6569 49.0871 78Z" fill="#5B3DF6"/>
</svg>
